#!OML:ASF H:\Dans Jumps\Project 1\Capture day 1\Session 1\subject.ASF
:FULLY-SPECIFIED
:DEGREES
102
root 0.658349 17.5303 -13.9801 5.94874 -1.8512 -1.79847
lowerback -3.26248 -0.533445 0.364216
upperback 2.46412 -0.813049 1.99955
thorax 4.39711 -0.426424 1.80402
lowerneck -14.5442 0.16222 -2.41239
upperneck 25.0384 0.708263 0.519917
head 10.4022 0.153631 0.686349
rclavicle 3.23025e-015 -7.95139e-016
rhumerus -25.512 -15.976 -78.1968
rradius 24.4527
rwrist 32.3607
rhand -19.4695 -25.9569
rfingers 7.12502
rthumb 6.85191 -55.826
lclavicle 3.23025e-015 -7.95139e-016
lhumerus -22.1829 -2.38247 87.4703
lradius 19.5031
lwrist 3.62617
lhand -23.5936 -3.27231
lfingers 7.12502
lthumb 2.86979 26.6881
rfemur -11.6449 -3.44842 20.2601
rtibia 20.6696
rfoot -13.8747 -1.66957
rtoes 13.1082
lfemur -11.3518 7.71501 -17.9263
ltibia 19.2767
lfoot -11.663 6.02815
ltoes -4.08169
103
root 0.659823 17.5302 -13.9805 5.95095 -1.84863 -1.79998
lowerback -3.26212 -0.531572 0.364339
upperback 2.46638 -0.810566 1.99888
thorax 4.39917 -0.425187 1.80344
lowerneck -14.5392 0.160497 -2.4137
upperneck 25.0544 0.705633 0.521746
head 10.407 0.152369 0.686953
rclavicle 1.77415e-014 0
rhumerus -25.5189 -15.9967 -78.189
rradius 24.4473
rwrist 32.3683
rhand -19.4631 -25.969
rfingers 7.12502
rthumb 6.85812 -55.8379
lclavicle 1.77415e-014 0
lhumerus -22.1892 -2.40925 87.4925
lradius 19.5156
lwrist 3.65591
lhand -23.5808 -3.26781
lfingers 7.12502
lthumb 2.88221 26.6925
rfemur -11.6505 -3.44191 20.2574
rtibia 20.6739
rfoot -13.874 -1.68223
rtoes 13.0872
lfemur -11.3588 7.71539 -17.9303
ltibia 19.2809
lfoot -11.6643 6.02105
ltoes -4.06973
104
root 0.66137 17.5303 -13.9807 5.94753 -1.84857 -1.79181
lowerback -3.25776 -0.527389 0.358427
upperback 2.46941 -0.804439 1.99351
thorax 4.39966 -0.422245 1.80167
lowerneck -14.5268 0.159706 -2.4104
upperneck 25.0591 0.702511 0.524825
head 10.4064 0.151595 0.687061
rclavicle 9.0447e-015 2.78299e-015
rhumerus -25.5285 -16.0331 -78.1781
rradius 24.4456
rwrist 32.3746
rhand -19.4411 -26.0038
rfingers 7.12502
rthumb 6.87935 -55.872
lclavicle 9.0447e-015 2.78299e-015
lhumerus -22.1951 -2.45089 87.5164
lradius 19.5293
lwrist 3.6864
lhand -23.5627 -3.25336
lfingers 7.12502
lthumb 2.89973 26.7067
rfemur -11.6503 -3.43862 20.2428
rtibia 20.6789
rfoot -13.8742 -1.69001
rtoes 13.0643
lfemur -11.3565 7.71555 -17.9446
ltibia 19.2808
lfoot -11.6644 6.01552
ltoes -4.06107
105
root 0.662948 17.5303 -13.9809 5.94402 -1.8492 -1.78268
lowerback -3.2531 -0.524205 0.351208
upperback 2.47217 -0.799583 1.98846
thorax 4.39975 -0.419979 1.80087
lowerneck -14.5245 0.16096 -2.40476
upperneck 25.0698 0.702334 0.526645
head 10.4098 0.152173 0.686784
rclavicle -3.23025e-015 -2.34566e-014
rhumerus -25.5367 -16.0575 -78.1705
rradius 24.4491
rwrist 32.3561
rhand -19.3958 -26.0355
rfingers 7.12502
rthumb 6.92311 -55.9023
lclavicle -3.23025e-015 -2.34566e-014
lhumerus -22.2001 -2.48324 87.5391
lradius 19.5381
lwrist 3.70771
lhand -23.5464 -3.24563
lfingers 7.12502
lthumb 2.91542 26.7142
rfemur -11.6502 -3.43726 20.2269
rtibia 20.6843
rfoot -13.8741 -1.69437
rtoes 13.0461
lfemur -11.3528 7.71558 -17.9604
ltibia 19.2782
lfoot -11.6633 6.01098
ltoes -4.0554
106
root 0.664531 17.5302 -13.981 5.93968 -1.85057 -1.77479
lowerback -3.24754 -0.520491 0.346519
upperback 2.47456 -0.794101 1.98271
thorax 4.39888 -0.417308 1.79797
lowerneck -14.5365 0.164199 -2.38785
upperneck 25.0917 0.704763 0.52009
head 10.4202 0.153901 0.682079
rclavicle -4.72114e-015 5.56597e-015
rhumerus -25.5476 -16.0842 -78.163
rradius 24.4505
rwrist 32.3493
rhand -19.361 -26.06
rfingers 7.12502
rthumb 6.95666 -55.9257
lclavicle -4.72114e-015 5.56597e-015
lhumerus -22.2066 -2.5168 87.5612
lradius 19.5464
lwrist 3.72705
lhand -23.5345 -3.23519
lfingers 7.12502
lthumb 2.92688 26.7245
rfemur -11.6489 -3.43465 20.2119
rtibia 20.6892
rfoot -13.8734 -1.6979
rtoes 13.0326
lfemur -11.3481 7.71688 -17.9748
ltibia 19.2755
lfoot -11.6619 6.00727
ltoes -4.0582
107
root 0.666109 17.5302 -13.9811 5.93729 -1.85312 -1.77186
lowerback -3.24442 -0.517522 0.34588
upperback 2.47651 -0.78993 1.97879
thorax 4.39895 -0.415196 1.79458
lowerneck -14.5524 0.16839 -2.37016
upperneck 25.1195 0.709092 0.511203
head 10.4335 0.15623 0.676706
rclavicle 6.80837e-015 -2.10712e-014
rhumerus -25.5572 -16.0985 -78.1597
rradius 24.4521
rwrist 32.3405
rhand -19.3302 -26.0742
rfingers 7.12502
rthumb 6.98646 -55.9389
lclavicle 6.80837e-015 -2.10712e-014
lhumerus -22.2137 -2.53609 87.5803
lradius 19.5529
lwrist 3.73366
lhand -23.5337 -3.23198
lfingers 7.12502
lthumb 2.92767 26.7277
rfemur -11.6491 -3.43088 20.2024
rtibia 20.6923
rfoot -13.8715 -1.70026
rtoes 13.0254
lfemur -11.348 7.7218 -17.9841
ltibia 19.2776
lfoot -11.6627 6.00328
ltoes -4.06359
108
root 0.66761 17.5301 -13.9813 5.93707 -1.85593 -1.77655
lowerback -3.24245 -0.515112 0.351323
upperback 2.47802 -0.786919 1.97696
thorax 4.39921 -0.413506 1.78986
lowerneck -14.5771 0.172843 -2.34992
upperneck 25.1568 0.714264 0.499185
head 10.452 0.158712 0.669982
rclavicle 8.59744e-015 -4.37326e-015
rhumerus -25.5665 -16.107 -78.1591
rradius 24.4479
rwrist 32.3523
rhand -19.3195 -26.0675
rfingers 7.12502
rthumb 6.99675 -55.9319
lclavicle 8.59744e-015 -4.37326e-015
lhumerus -22.2228 -2.55002 87.5973
lradius 19.5595
lwrist 3.73887
lhand -23.5442 -3.23808
lfingers 7.12502
lthumb 2.91758 26.7217
rfemur -11.6504 -3.42383 20.2019
rtibia 20.6934
rfoot -13.869 -1.70513
rtoes 13.0208
lfemur -11.3526 7.72858 -17.9847
ltibia 19.2844
lfoot -11.6663 5.99822
ltoes -4.06018
109
root 0.669118 17.5299 -13.9816 5.93835 -1.85847 -1.78628
lowerback -3.24304 -0.513394 0.361223
upperback 2.47985 -0.78517 1.9766
thorax 4.40125 -0.412336 1.78405
lowerneck -14.6027 0.177355 -2.32926
upperneck 25.1953 0.719637 0.486382
head 10.4711 0.161216 0.662941
rclavicle -9.83984e-015 2.0276e-014
rhumerus -25.5744 -16.1124 -78.1611
rradius 24.441
rwrist 32.3754
rhand -19.319 -26.059
rfingers 7.12502
rthumb 6.99724 -55.9233
lclavicle -9.83984e-015 2.0276e-014
lhumerus -22.2319 -2.55596 87.612
lradius 19.5663
lwrist 3.74036
lhand -23.5563 -3.24899
lfingers 7.12502
lthumb 2.90586 26.711
rfemur -11.6523 -3.41831 20.2071
rtibia 20.6928
rfoot -13.8666 -1.70812
rtoes 13.0226
lfemur -11.3612 7.73814 -17.98
ltibia 19.2967
lfoot -11.6731 5.99117
ltoes -4.0559
110
root 0.670592 17.5297 -13.9817 5.93932 -1.85978 -1.79597
lowerback -3.24368 -0.512841 0.370318
upperback 2.48215 -0.784965 1.97668
thorax 4.40388 -0.411969 1.77904
lowerneck -14.6308 0.182284 -2.30901
upperneck 25.2349 0.725807 0.47348
head 10.4911 0.164019 0.656051
rclavicle 1.21756e-014 -9.14409e-015
rhumerus -25.5797 -16.1202 -78.1637
rradius 24.4298
rwrist 32.4156
rhand -19.3258 -26.0497
rfingers 7.12502
rthumb 6.99071 -55.9143
lclavicle 1.21756e-014 -9.14409e-015
lhumerus -22.2394 -2.55744 87.6249
lradius 19.5719
lwrist 3.73907
lhand -23.5675 -3.25985
lfingers 7.12502
lthumb 2.89503 26.7002
rfemur -11.6529 -3.41456 20.2127
rtibia 20.6916
rfoot -13.8653 -1.71105
rtoes 13.0237
lfemur -11.3695 7.74872 -17.975
ltibia 19.3095
lfoot -11.6825 5.98133
ltoes -4.04401
111
root 0.672029 17.5295 -13.9818 5.94128 -1.86139 -1.80723
lowerback -3.24468 -0.512905 0.379593
upperback 2.48335 -0.785635 1.97814
thorax 4.40562 -0.412048 1.77528
lowerneck -14.651 0.185917 -2.29694
upperneck 25.2709 0.730806 0.465106
head 10.5083 0.166085 0.651954
rclavicle 9.0447e-015 -5.1684e-015
rhumerus -25.586 -16.1212 -78.1681
rradius 24.4211
rwrist 32.4521
rhand -19.3318 -26.043
rfingers 7.12502
rthumb 6.98482 -55.9077
lclavicle 9.0447e-015 -5.1684e-015
lhumerus -22.2478 -2.55306 87.6371
lradius 19.5761
lwrist 3.73758
lhand -23.582 -3.27851
lfingers 7.12502
lthumb 2.88106 26.6818
rfemur -11.6545 -3.41129 20.2201
rtibia 20.6907
rfoot -13.865 -1.71254
rtoes 13.0252
lfemur -11.3779 7.75969 -17.9683
ltibia 19.321
lfoot -11.6909 5.97045
ltoes -4.02999
112
root 0.673478 17.5294 -13.9817 5.93959 -1.86249 -1.80835
lowerback -3.24331 -0.511811 0.381331
upperback 2.48504 -0.784169 1.97553
thorax 4.40648 -0.411229 1.77171
lowerneck -14.6591 0.1889 -2.28507
upperneck 25.295 0.733934 0.45897
head 10.5187 0.167675 0.648331
rclavicle -1.2921e-015 -2.70347e-014
rhumerus -25.5931 -16.1384 -78.1697
rradius 24.4145
rwrist 32.4893
rhand -19.3326 -26.0546
rfingers 7.12502
rthumb 6.98406 -55.9194
lclavicle -1.2921e-015 -2.70347e-014
lhumerus -22.253 -2.56136 87.65
lradius 19.5799
lwrist 3.73871
lhand -23.587 -3.28186
lfingers 7.12502
lthumb 2.87619 26.6785
rfemur -11.6526 -3.41301 20.2158
rtibia 20.6907
rfoot -13.866 -1.71079
rtoes 13.0246
lfemur -11.3805 7.76936 -17.9725
ltibia 19.3296
lfoot -11.699 5.95861
ltoes -4.01344
113
root 0.674857 17.5294 -13.9816 5.93784 -1.86503 -1.80934
lowerback -3.24196 -0.510601 0.382015
upperback 2.48653 -0.782506 1.97329
thorax 4.40717 -0.41035 1.76914
lowerneck -14.6615 0.191348 -2.27661
upperneck 25.3169 0.736804 0.453634
head 10.5272 0.168942 0.645499
rclavicle -1.47598e-014 3.26007e-014
rhumerus -25.5989 -16.1457 -78.1749
rradius 24.4165
rwrist 32.4942
rhand -19.3091 -26.0719
rfingers 7.12502
rthumb 7.00677 -55.9359
lclavicle -1.47598e-014 3.26007e-014
lhumerus -22.2573 -2.56514 87.6611
lradius 19.5809
lwrist 3.7345
lhand -23.5861 -3.28019
lfingers 7.12502
lthumb 2.87709 26.6801
rfemur -11.6516 -3.41189 20.2116
rtibia 20.6918
rfoot -13.8667 -1.71141
rtoes 13.0169
lfemur -11.3816 7.77553 -17.9767
ltibia 19.3358
lfoot -11.7045 5.95119
ltoes -3.99973
114
root 0.676197 17.5293 -13.9815 5.93592 -1.86627 -1.81003
lowerback -3.24008 -0.509964 0.382687
upperback 2.4882 -0.781589 1.97075
thorax 4.40776 -0.409837 1.76621
lowerneck -14.66 0.193634 -2.27054
upperneck 25.3361 0.739714 0.449185
head 10.534 0.170132 0.643367
rclavicle 3.72721e-015 1.15295e-014
rhumerus -25.6042 -16.1513 -78.1816
rradius 24.4191
rwrist 32.4999
rhand -19.2948 -26.0838
rfingers 7.12502
rthumb 7.02058 -55.9474
lclavicle 3.72721e-015 1.15295e-014
lhumerus -22.2602 -2.57222 87.6715
lradius 19.5812
lwrist 3.7351
lhand -23.5793 -3.26911
lfingers 7.12502
lthumb 2.88367 26.6911
rfemur -11.6511 -3.41012 20.207
rtibia 20.6938
rfoot -13.8673 -1.71262
rtoes 13.0109
lfemur -11.3811 7.77656 -17.9808
ltibia 19.3391
lfoot -11.7077 5.94734
ltoes -3.98994
115
root 0.677516 17.5292 -13.9814 5.93458 -1.86677 -1.80941
lowerback -3.24079 -0.509688 0.381692
upperback 2.49122 -0.781135 1.96815
thorax 4.41126 -0.409617 1.76411
lowerneck -14.6499 0.194786 -2.26944
upperneck 25.3476 0.741165 0.44795
head 10.5362 0.170645 0.642955
rclavicle 1.14301e-015 -2.26615e-014
rhumerus -25.6055 -16.1495 -78.1927
rradius 24.4255
rwrist 32.4917
rhand -19.2808 -26.1079
rfingers 7.12502
rthumb 7.0341 -55.9711
lclavicle 1.14301e-015 -2.26615e-014
lhumerus -22.2588 -2.57681 87.6804
lradius 19.5788
lwrist 3.72948
lhand -23.5691 -3.25258
lfingers 7.12502
lthumb 2.89355 26.7075
rfemur -11.6514 -3.40838 20.2013
rtibia 20.6965
rfoot -13.8672 -1.71525
rtoes 12.9964
lfemur -11.3815 7.77611 -17.9864
ltibia 19.3424
lfoot -11.7101 5.94456
ltoes -3.98713
